<svg id="Layer_1" data-name="Layer 1" xmlns="http://www.w3.org/2000/svg" xmlns:xlink="http://www.w3.org/1999/xlink" viewBox="0 0 491.2705 451.1099"><defs><clipPath id="clip-path"><rect id="_Rectangle_" data-name="&lt;Rectangle&gt;" x="53.9339" y="145.3051" width="382.4203" height="185.3787" fill="none"/></clipPath><linearGradient id="linear-gradient" x1="88.9108" y1="273.5569" x2="403.6442" y2="273.5569" gradientUnits="userSpaceOnUse"><stop offset="0" stop-color="#1a2c42"/><stop offset="0.5162" stop-color="#1c263b"/><stop offset="1" stop-color="#1e283e"/></linearGradient><linearGradient id="linear-gradient-2" x1="88.9149" y1="273.5584" x2="403.6449" y2="273.5584" gradientUnits="userSpaceOnUse"><stop offset="0" stop-color="#1c263b"/><stop offset="1" stop-color="#050c16"/></linearGradient><linearGradient id="linear-gradient-3" x1="96.5649" y1="273.5584" x2="395.9949" y2="273.5584" gradientUnits="userSpaceOnUse"><stop offset="0" stop-color="#104968"/><stop offset="0.2622" stop-color="#08263a"/><stop offset="0.7378" stop-color="#040e16"/><stop offset="1" stop-color="#02060a"/></linearGradient><radialGradient id="radial-gradient" cx="246.2775" cy="249.3693" r="401.7762" gradientTransform="translate(0 177.7173) scale(1 0.2873)" gradientUnits="userSpaceOnUse"><stop offset="0" stop-color="#662d91"/><stop offset="0.5162" stop-color="#1c263b"/><stop offset="1" stop-color="#1e283e"/></radialGradient><radialGradient id="radial-gradient-2" cx="246.2805" cy="249.3693" r="107.1328" xlink:href="#radial-gradient"/><radialGradient id="radial-gradient-3" cx="246.2775" cy="293.256" r="393.6399" gradientTransform="translate(0 208.9939) scale(1 0.2873)" xlink:href="#radial-gradient"/><linearGradient id="Áåçûìÿííûé_ãðàäèåíò_68" x1="21183.2601" y1="12596.2208" x2="21183.2601" y2="11619.6205" gradientTransform="translate(-3966.1606 -2197.9295) scale(0.1972)" gradientUnits="userSpaceOnUse"><stop offset="0.004" stop-color="#000021"/><stop offset="1" stop-color="#130037"/></linearGradient><linearGradient id="Áåçûìÿííûé_ãðàäèåíò_282" x1="21008.4749" y1="12592.5361" x2="21008.4749" y2="11486.5755" gradientTransform="translate(-3966.1606 -2197.9295) scale(0.1972)" gradientUnits="userSpaceOnUse"><stop offset="0.004" stop-color="#a70072"/><stop offset="1" stop-color="#570077"/></linearGradient><linearGradient id="Áåçûìÿííûé_ãðàäèåíò_241" x1="21038.5871" y1="12588.824" x2="21038.5871" y2="11486.5755" gradientTransform="translate(-3966.1606 -2197.9295) scale(0.1972)" gradientUnits="userSpaceOnUse"><stop offset="0" stop-color="#ffae00"/><stop offset="1" stop-color="#f42f68"/></linearGradient><linearGradient id="New_Gradient_Swatch_31" x1="21029.2086" y1="12594.4938" x2="21029.2086" y2="11792.8705" gradientTransform="translate(-3966.1606 -2197.9295) scale(0.1972)" gradientUnits="userSpaceOnUse"><stop offset="0" stop-color="#230040"/><stop offset="0.996" stop-color="#1e007e"/></linearGradient><linearGradient id="Áåçûìÿííûé_ãðàäèåíò_68-2" x1="-4696.3707" y1="158.2153" x2="-4694.6676" y2="158.2153" gradientTransform="matrix(-1, 0, 0, 1, -4520.1651, 0)" xlink:href="#Áåçûìÿííûé_ãðàäèåíò_68"/><linearGradient id="Áåçûìÿííûé_ãðàäèåíò_68-3" x1="-4687.7928" y1="175.0851" x2="-4686.0896" y2="175.0851" gradientTransform="matrix(-1, 0, 0, 1, -4520.1651, 0)" xlink:href="#Áåçûìÿííûé_ãðàäèåíò_68"/><linearGradient id="Áåçûìÿííûé_ãðàäèåíò_68-4" x1="-4690.6006" y1="178.9298" x2="-4688.8975" y2="178.9298" gradientTransform="matrix(-1, 0, 0, 1, -4520.1651, 0)" xlink:href="#Áåçûìÿííûé_ãðàäèåíò_68"/><linearGradient id="Áåçûìÿííûé_ãðàäèåíò_68-5" x1="-4686.9412" y1="203.9996" x2="-4685.2382" y2="203.9996" gradientTransform="matrix(-1, 0, 0, 1, -4520.1651, 0)" xlink:href="#Áåçûìÿííûé_ãðàäèåíò_68"/><linearGradient id="Áåçûìÿííûé_ãðàäèåíò_68-6" x1="-4698.7641" y1="214.189" x2="-4697.0611" y2="214.189" gradientTransform="matrix(-1, 0, 0, 1, -4520.1651, 0)" xlink:href="#Áåçûìÿííûé_ãðàäèåíò_68"/><linearGradient id="Áåçûìÿííûé_ãðàäèåíò_68-7" x1="-4676.9158" y1="158.2188" x2="-4675.2126" y2="158.2188" gradientTransform="matrix(-1, 0, 0, 1, -4520.1651, 0)" xlink:href="#Áåçûìÿííûé_ãðàäèåíò_68"/><linearGradient id="Áåçûìÿííûé_ãðàäèåíò_68-8" x1="-4716.2721" y1="191.2865" x2="-4714.8629" y2="191.2865" gradientTransform="matrix(-1, 0, 0, 1, -4520.1651, 0)" xlink:href="#Áåçûìÿííûé_ãðàäèåíò_68"/><linearGradient id="Áåçûìÿííûé_ãðàäèåíò_68-9" x1="-4709.1741" y1="208.1563" x2="-4707.7647" y2="208.1563" gradientTransform="matrix(-1, 0, 0, 1, -4520.1651, 0)" xlink:href="#Áåçûìÿííûé_ãðàäèåíò_68"/><linearGradient id="Áåçûìÿííûé_ãðàäèåíò_68-10" x1="-4711.4975" y1="212.001" x2="-4710.0882" y2="212.001" gradientTransform="matrix(-1, 0, 0, 1, -4520.1651, 0)" xlink:href="#Áåçûìÿííûé_ãðàäèåíò_68"/><linearGradient id="Áåçûìÿííûé_ãðàäèåíò_68-11" x1="-4708.4694" y1="237.0708" x2="-4707.0602" y2="237.0708" gradientTransform="matrix(-1, 0, 0, 1, -4520.1651, 0)" xlink:href="#Áåçûìÿííûé_ãðàäèåíò_68"/><linearGradient id="Áåçûìÿííûé_ãðàäèåíò_68-12" x1="-4718.2527" y1="247.2602" x2="-4716.8434" y2="247.2602" gradientTransform="matrix(-1, 0, 0, 1, -4520.1651, 0)" xlink:href="#Áåçûìÿííûé_ãðàäèåíò_68"/><linearGradient id="Áåçûìÿííûé_ãðàäèåíò_68-13" x1="-4700.1735" y1="191.29" x2="-4698.7641" y2="191.29" gradientTransform="matrix(-1, 0, 0, 1, -4520.1651, 0)" xlink:href="#Áåçûìÿííûé_ãðàäèåíò_68"/><linearGradient id="New_Gradient_Swatch_35" x1="265.5326" y1="145.9561" x2="283.3532" y2="146.197" gradientUnits="userSpaceOnUse"><stop offset="0" stop-color="#0070ff"/><stop offset="0.996" stop-color="#220070"/></linearGradient><linearGradient id="linear-gradient-4" x1="304.8255" y1="301.4327" x2="293.0258" y2="-13.4725" gradientUnits="userSpaceOnUse"><stop offset="0" stop-color="#0070ff"/><stop offset="0.996" stop-color="#380070"/></linearGradient><radialGradient id="radial-gradient-4" cx="357.5204" cy="248.2502" r="19.0573" gradientTransform="matrix(-1.0472, 0.6491, -0.1993, -0.3053, 733.7975, 83.6756)" gradientUnits="userSpaceOnUse"><stop offset="0"/><stop offset="0.9992" stop-color="#8c00a8" stop-opacity="0"/></radialGradient><linearGradient id="New_Gradient_Swatch_35-2" x1="317.4692" y1="221.5517" x2="299.6488" y2="257.5465" xlink:href="#New_Gradient_Swatch_35"/><linearGradient id="New_Gradient_Swatch_35-3" x1="301.6473" y1="236.0586" x2="300.6208" y2="192.9449" xlink:href="#New_Gradient_Swatch_35"/><linearGradient id="New_Gradient_Swatch_35-4" x1="310.7164" y1="224.186" x2="311.8114" y2="227.9764" xlink:href="#New_Gradient_Swatch_35"/><linearGradient id="New_Gradient_Swatch_35-5" x1="321.0134" y1="230.1732" x2="312.3999" y2="94.6427" xlink:href="#New_Gradient_Swatch_35"/><radialGradient id="New_Gradient_Swatch_2" cx="353.0997" cy="231.4557" r="19.9274" gradientTransform="translate(-133.803 -710.2623) scale(1.2411 4.0177)" gradientUnits="userSpaceOnUse"><stop offset="0" stop-color="#fff"/><stop offset="0.4516" stop-color="#d9d9d9"/><stop offset="0.4768" stop-color="#cecece"/><stop offset="0.57" stop-color="#acacac"/><stop offset="0.6584" stop-color="#949494"/><stop offset="0.7396" stop-color="#858585"/><stop offset="0.8065" stop-color="gray"/><stop offset="0.8536" stop-color="#848484"/><stop offset="0.9039" stop-color="#919191"/><stop offset="0.9553" stop-color="#a6a6a6"/><stop offset="1" stop-color="#bfbfbf"/></radialGradient><linearGradient id="New_Gradient_Swatch_35-6" x1="307.7971" y1="183.8705" x2="322.7844" y2="182.4815" xlink:href="#New_Gradient_Swatch_35"/><linearGradient id="New_Gradient_Swatch_27" x1="308.9283" y1="239.3689" x2="306.4519" y2="135.358" gradientUnits="userSpaceOnUse"><stop offset="0" stop-color="#5c0079"/><stop offset="1" stop-color="#ce544c"/></linearGradient><linearGradient id="New_Gradient_Swatch_25" x1="345.1358" y1="194.0747" x2="225.5162" y2="101.7103" gradientUnits="userSpaceOnUse"><stop offset="0" stop-color="#ffc236"/><stop offset="0.996" stop-color="#f20750"/></linearGradient><linearGradient id="New_Gradient_Swatch_30" x1="284.3876" y1="265.324" x2="322.6498" y2="265.324" gradientUnits="userSpaceOnUse"><stop offset="0" stop-color="#fc4b5d"/><stop offset="0.1522" stop-color="#f1455a"/><stop offset="0.4183" stop-color="#d43551"/><stop offset="0.7642" stop-color="#a61a44"/><stop offset="1" stop-color="#820639"/></linearGradient><linearGradient id="linear-gradient-5" x1="284.8699" y1="268.0302" x2="322.5267" y2="268.0302" gradientUnits="userSpaceOnUse"><stop offset="0" stop-color="#fc4b5d"/><stop offset="0.0069" stop-color="#f8495c"/><stop offset="0.0678" stop-color="#d83752"/><stop offset="0.1357" stop-color="#be284b"/><stop offset="0.2133" stop-color="#a81b44"/><stop offset="0.3038" stop-color="#97123f"/><stop offset="0.4156" stop-color="#8b0b3c"/><stop offset="0.572" stop-color="#84073a"/><stop offset="1" stop-color="#820639"/></linearGradient><linearGradient id="linear-gradient-6" x1="289.1022" y1="284.2805" x2="334.3137" y2="284.2805" gradientUnits="userSpaceOnUse"><stop offset="0" stop-color="#02fffc"/><stop offset="1" stop-color="#79e8f8" stop-opacity="0"/></linearGradient><linearGradient id="linear-gradient-7" x1="290.0929" y1="280.1275" x2="328.2594" y2="280.1275" xlink:href="#linear-gradient-6"/><linearGradient id="linear-gradient-8" x1="275.0407" y1="302.2362" x2="312.2269" y2="302.2362" xlink:href="#linear-gradient-5"/><linearGradient id="New_Gradient_Swatch_30-2" x1="318.991" y1="302.7552" x2="314.4518" y2="267.9352" xlink:href="#New_Gradient_Swatch_30"/><linearGradient id="New_Gradient_Swatch_30-3" x1="293.3377" y1="302.0983" x2="288.9449" y2="268.4012" xlink:href="#New_Gradient_Swatch_30"/><linearGradient id="New_Gradient_Swatch_25-2" x1="331.4289" y1="282.7442" x2="310.7023" y2="287.3501" xlink:href="#New_Gradient_Swatch_25"/><linearGradient id="New_Gradient_Swatch_25-3" x1="273.6012" y1="286.3112" x2="305.5817" y2="284.9504" xlink:href="#New_Gradient_Swatch_25"/><linearGradient id="linear-gradient-9" x1="305.8467" y1="308.7524" x2="304.5546" y2="298.8407" xlink:href="#linear-gradient-5"/><linearGradient id="New_Gradient_Swatch_30-4" x1="316.1193" y1="281.5803" x2="315.9757" y2="280.4787" xlink:href="#New_Gradient_Swatch_30"/><linearGradient id="New_Gradient_Swatch_30-5" x1="290.3042" y1="280.7815" x2="294.6836" y2="280.7815" xlink:href="#New_Gradient_Swatch_30"/><linearGradient id="New_Gradient_Swatch_30-6" x1="293.6198" y1="287.9806" x2="290.559" y2="290.4653" xlink:href="#New_Gradient_Swatch_30"/><radialGradient id="New_Gradient_Swatch_2-2" cx="268.5764" cy="72.6769" r="17.781" gradientTransform="matrix(1, 0, 0, 1, 0, 0)" xlink:href="#New_Gradient_Swatch_2"/><linearGradient id="Áåçûìÿííûé_ãðàäèåíò_257" x1="267.3788" y1="66.6966" x2="267.9066" y2="76.2561" gradientUnits="userSpaceOnUse"><stop offset="0.2569" stop-color="#ff4d62"/><stop offset="0.996" stop-color="#ab0061"/></linearGradient><linearGradient id="linear-gradient-10" x1="-3228.3598" y1="162.5102" x2="-3228.3598" y2="69.4282" gradientTransform="matrix(-1, 0, 0, 1, -2962.7416, 0)" gradientUnits="userSpaceOnUse"><stop offset="0.004" stop-color="#ab0061"/><stop offset="0.7431" stop-color="#ff4d62"/></linearGradient><linearGradient id="Áåçûìÿííûé_ãðàäèåíò_257-2" x1="-3233.6663" y1="165.1106" x2="-3233.6663" y2="69.4282" gradientTransform="matrix(-1, 0, 0, 1, -2962.7416, 0)" xlink:href="#Áåçûìÿííûé_ãðàäèåíò_257"/><linearGradient id="New_Gradient_Swatch_23" x1="267.7723" y1="92.6965" x2="273.9454" y2="92.934" gradientUnits="userSpaceOnUse"><stop offset="0.2569" stop-color="#e90050"/><stop offset="0.996" stop-color="#880061"/></linearGradient><linearGradient id="New_Gradient_Swatch_23-2" x1="277.6809" y1="82.4533" x2="265.5995" y2="77.8788" xlink:href="#New_Gradient_Swatch_23"/><linearGradient id="New_Gradient_Swatch_23-3" x1="267.4882" y1="112.2081" x2="274.3136" y2="112.4707" xlink:href="#New_Gradient_Swatch_23"/><radialGradient id="New_Gradient_Swatch_2-3" cx="-3165.5475" cy="78.1983" r="17.781" gradientTransform="matrix(-1, 0, 0, 1, -2938.1822, 0)" xlink:href="#New_Gradient_Swatch_2"/><linearGradient id="Áåçûìÿííûé_ãðàäèåíò_257-3" x1="-3166.7452" y1="72.2181" x2="-3166.2174" y2="81.7776" gradientTransform="matrix(-1, 0, 0, 1, -2938.1822, 0)" xlink:href="#Áåçûìÿííûé_ãðàäèåíò_257"/><linearGradient id="linear-gradient-11" x1="205.7641" y1="168.0316" x2="205.7641" y2="74.9496" gradientTransform="translate(24.5593)" xlink:href="#linear-gradient-10"/><linearGradient id="Áåçûìÿííûé_ãðàäèåíò_257-4" x1="200.4576" y1="170.6321" x2="200.4576" y2="74.9496" gradientTransform="translate(24.5593)" xlink:href="#Áåçûìÿííûé_ãðàäèåíò_257"/><linearGradient id="New_Gradient_Swatch_23-4" x1="-3166.3517" y1="98.218" x2="-3160.1785" y2="98.4554" gradientTransform="matrix(-1, 0, 0, 1, -2938.1822, 0)" xlink:href="#New_Gradient_Swatch_23"/><linearGradient id="New_Gradient_Swatch_23-5" x1="-3156.4431" y1="87.9747" x2="-3168.5244" y2="83.4002" gradientTransform="matrix(-1, 0, 0, 1, -2938.1822, 0)" xlink:href="#New_Gradient_Swatch_23"/><linearGradient id="New_Gradient_Swatch_23-6" x1="-3166.6358" y1="117.7296" x2="-3159.8103" y2="117.9921" gradientTransform="matrix(-1, 0, 0, 1, -2938.1822, 0)" xlink:href="#New_Gradient_Swatch_23"/><linearGradient id="New_Gradient_Swatch_19" x1="-3266.9218" y1="278.6841" x2="-3266.9218" y2="82.3165" gradientTransform="matrix(-1, 0, 0, 1, -2962.7416, 0)" gradientUnits="userSpaceOnUse"><stop offset="0" stop-color="#ff6a36"/><stop offset="0.996" stop-color="#bd0750"/></linearGradient><linearGradient id="New_Gradient_Swatch_23-7" x1="-3273.0254" y1="285.2678" x2="-3273.0254" y2="82.3165" gradientTransform="matrix(-1, 0, 0, 1, -2962.7416, 0)" xlink:href="#New_Gradient_Swatch_23"/><linearGradient id="Áåçûìÿííûé_ãðàäèåíò_68-14" x1="-3256.7972" y1="269.7083" x2="-3256.7972" y2="119.6597" gradientTransform="matrix(-1, 0, 0, 1, -2962.7416, 0)" xlink:href="#Áåçûìÿííûé_ãðàäèåíò_68"/><linearGradient id="Áåçûìÿííûé_ãðàäèåíò_133" x1="4476.3135" y1="2490.5978" x2="4476.3135" y2="2472.3448" gradientTransform="translate(-4156.2443 -2360.3946)" gradientUnits="userSpaceOnUse"><stop offset="0" stop-color="#130052"/><stop offset="1" stop-color="#5b1174"/></linearGradient><linearGradient id="Áåçûìÿííûé_ãðàäèåíò_121" x1="4496.1797" y1="2488.8102" x2="4496.1797" y2="2472.3448" gradientTransform="translate(-4156.2443 -2360.3946)" gradientUnits="userSpaceOnUse"><stop offset="0" stop-color="#270089"/><stop offset="1" stop-color="#006fbb"/></linearGradient><linearGradient id="Áåçûìÿííûé_ãðàäèåíò_133-2" x1="4468.1673" y1="2659.1259" x2="4468.1673" y2="2481.4713" xlink:href="#Áåçûìÿííûé_ãðàäèåíò_133"/><linearGradient id="New_Gradient_Swatch_35-7" x1="4449.6946" y1="2659.1259" x2="4449.6946" y2="2531.1795" gradientTransform="translate(-4156.2443 -2360.3946)" xlink:href="#New_Gradient_Swatch_35"/><linearGradient id="New_Gradient_Swatch_32" x1="4449.6946" y1="2659.1259" x2="4449.6946" y2="2531.1795" gradientTransform="translate(-4156.2443 -2360.3946)" gradientUnits="userSpaceOnUse"><stop offset="0" stop-color="#517cfe"/><stop offset="1" stop-color="#65eca9"/></linearGradient><linearGradient id="New_Gradient_Swatch_32-2" x1="4464.3961" y1="2659.1259" x2="4464.3961" y2="2531.1795" xlink:href="#New_Gradient_Swatch_32"/><linearGradient id="Áåçûìÿííûé_ãðàäèåíò_192" x1="4466.4454" y1="2659.1259" x2="4466.4454" y2="2531.1795" gradientTransform="translate(-4156.2443 -2360.3946)" gradientUnits="userSpaceOnUse"><stop offset="0" stop-color="#06f"/><stop offset="0.996" stop-color="#000021"/></linearGradient><linearGradient id="linear-gradient-12" x1="4502.5528" y1="2659.1259" x2="4502.5528" y2="2481.4713" xlink:href="#Áåçûìÿííûé_ãðàäèåíò_121"/><linearGradient id="New_Gradient_Swatch_32-3" x1="4487.2675" y1="2659.1259" x2="4487.2675" y2="2481.4713" xlink:href="#New_Gradient_Swatch_32"/><linearGradient id="Áåçûìÿííûé_ãðàäèåíò_97" x1="4495.4012" y1="2658.0842" x2="4472.5472" y2="2482.7699" gradientTransform="translate(-4156.2443 -2360.3946)" gradientUnits="userSpaceOnUse"><stop offset="0" stop-color="#517cfe"/><stop offset="1" stop-color="#00a797"/></linearGradient><linearGradient id="New_Gradient_Swatch_32-4" x1="4513.6972" y1="2658.1871" x2="4513.6972" y2="2483.8166" xlink:href="#New_Gradient_Swatch_32"/><linearGradient id="Áåçûìÿííûé_ãðàäèåíò_68-15" x1="-4836.2707" y1="192.8132" x2="-4834.5495" y2="192.8132" gradientTransform="matrix(-1, 0, 0, 1, -4520.1651, 0)" xlink:href="#Áåçûìÿííûé_ãðàäèåíò_68"/><linearGradient id="Áåçûìÿííûé_ãðàäèåíò_68-16" x1="-4821.203" y1="208.533" x2="-4819.4816" y2="208.533" gradientTransform="matrix(-1, 0, 0, 1, -4520.1651, 0)" xlink:href="#Áåçûìÿííûé_ãðàäèåíò_68"/><linearGradient id="Áåçûìÿííûé_ãðàäèåíò_68-17" x1="-4831.3096" y1="200.8885" x2="-4829.5884" y2="200.8885" gradientTransform="matrix(-1, 0, 0, 1, -4520.1651, 0)" xlink:href="#Áåçûìÿííûé_ãðàäèåíò_68"/><linearGradient id="Áåçûìÿííûé_ãðàäèåíò_68-18" x1="-4839.1923" y1="201.9768" x2="-4837.4711" y2="201.9768" gradientTransform="matrix(-1, 0, 0, 1, -4520.1651, 0)" xlink:href="#Áåçûìÿííûé_ãðàäèåíò_68"/><linearGradient id="Áåçûìÿííûé_ãðàäèåíò_68-19" x1="-4841.8267" y1="234.0617" x2="-4840.1056" y2="234.0617" gradientTransform="matrix(-1, 0, 0, 1, -4520.1651, 0)" xlink:href="#Áåçûìÿííûé_ãðàäèåíò_68"/><linearGradient id="Áåçûìÿííûé_ãðàäèåíò_68-20" x1="-4821.3823" y1="239.0826" x2="-4819.6611" y2="239.0826" gradientTransform="matrix(-1, 0, 0, 1, -4520.1651, 0)" xlink:href="#Áåçûìÿííûé_ãðàäèåíò_68"/><linearGradient id="Áåçûìÿííûé_ãðàäèåíò_68-21" x1="-4828.3372" y1="217.6358" x2="-4826.616" y2="217.6358" gradientTransform="matrix(-1, 0, 0, 1, -4520.1651, 0)" xlink:href="#Áåçûìÿííûé_ãðàäèåíò_68"/><linearGradient id="Áåçûìÿííûé_ãðàäèåíò_68-22" x1="-4841.3497" y1="216.6071" x2="-4839.6285" y2="216.6071" gradientTransform="matrix(-1, 0, 0, 1, -4520.1651, 0)" xlink:href="#Áåçûìÿííûé_ãðàäèåíò_68"/><linearGradient id="Áåçûìÿííûé_ãðàäèåíò_68-23" x1="-4834.9666" y1="225.3494" x2="-4833.2454" y2="225.3494" gradientTransform="matrix(-1, 0, 0, 1, -4520.1651, 0)" xlink:href="#Áåçûìÿííûé_ãðàäèåíò_68"/><linearGradient id="Áåçûìÿííûé_ãðàäèåíò_68-24" x1="-4834.106" y1="209.6212" x2="-4832.3849" y2="209.6212" gradientTransform="matrix(-1, 0, 0, 1, -4520.1651, 0)" xlink:href="#Áåçûìÿííûé_ãðàäèåíò_68"/><linearGradient id="Áåçûìÿííûé_ãðàäèåíò_68-25" x1="-4823.0538" y1="227.1994" x2="-4821.3326" y2="227.1994" gradientTransform="matrix(-1, 0, 0, 1, -4520.1651, 0)" xlink:href="#Áåçûìÿííûé_ãðàäèåíò_68"/><linearGradient id="Áåçûìÿííûé_ãðàäèåíò_68-26" x1="-4832.7785" y1="245.1454" x2="-4831.0573" y2="245.1454" gradientTransform="matrix(-1, 0, 0, 1, -4520.1651, 0)" xlink:href="#Áåçûìÿííûé_ãðàäèåíò_68"/><linearGradient id="Áåçûìÿííûé_ãðàäèåíò_68-27" x1="-4832.1702" y1="235.8464" x2="-4830.449" y2="235.8464" gradientTransform="matrix(-1, 0, 0, 1, -4520.1651, 0)" xlink:href="#Áåçûìÿííûé_ãðàäèåíò_68"/><linearGradient id="Áåçûìÿííûé_ãðàäèåíò_68-28" x1="-4825.9339" y1="193.0142" x2="-4824.2126" y2="193.0142" gradientTransform="matrix(-1, 0, 0, 1, -4520.1651, 0)" xlink:href="#Áåçûìÿííûé_ãðàäèåíò_68"/><linearGradient id="New_Gradient_Swatch_30-7" x1="210.6968" y1="157.9406" x2="221.9132" y2="209.7083" xlink:href="#New_Gradient_Swatch_30"/><linearGradient id="linear-gradient-13" x1="261.0887" y1="191.0755" x2="253.8106" y2="96.0051" gradientUnits="userSpaceOnUse"><stop offset="0" stop-color="#220070"/><stop offset="1" stop-color="#ff9000"/></linearGradient><linearGradient id="New_Gradient_Swatch_28" x1="248.812" y1="224.2158" x2="248.812" y2="92.8733" gradientUnits="userSpaceOnUse"><stop offset="0" stop-color="#e84089"/><stop offset="1" stop-color="#ffc000"/></linearGradient><linearGradient id="New_Gradient_Swatch_27-2" x1="4370.3108" y1="2634.1882" x2="4370.3108" y2="2533.3773" gradientTransform="translate(-4156.2443 -2360.3946)" xlink:href="#New_Gradient_Swatch_27"/><linearGradient id="Áåçûìÿííûé_ãðàäèåíò_151" x1="4420.62" y1="2622.6834" x2="4420.62" y2="2533.3773" gradientTransform="translate(-4156.2443 -2360.3946)" gradientUnits="userSpaceOnUse"><stop offset="0" stop-color="#9500b5"/><stop offset="1" stop-color="#ff9300"/></linearGradient><linearGradient id="New_Gradient_Swatch_39" x1="4340.7064" y1="2579.836" x2="4437.5446" y2="2579.836" gradientTransform="translate(-4156.2443 -2360.3946)" gradientUnits="userSpaceOnUse"><stop offset="0.0258" stop-color="#1606a0"/><stop offset="1" stop-color="#4d4aca"/></linearGradient><linearGradient id="New_Gradient_Swatch_18" x1="4334.4669" y1="2614.2725" x2="4443.1573" y2="2614.2725" gradientTransform="translate(-4156.2443 -2360.3946)" gradientUnits="userSpaceOnUse"><stop offset="0" stop-color="#830094"/><stop offset="0.0838" stop-color="#730086"/><stop offset="0.3726" stop-color="#420059"/><stop offset="0.626" stop-color="#1e0039"/><stop offset="0.8318" stop-color="#080025"/><stop offset="0.9642" stop-color="#00001e"/></linearGradient><linearGradient id="linear-gradient-14" x1="246.237" y1="277.0406" x2="246.237" y2="241.1689" gradientUnits="userSpaceOnUse"><stop offset="0" stop-color="#230040"/><stop offset="0.996" stop-color="#1e007e" stop-opacity="0"/></linearGradient><linearGradient id="New_Gradient_Swatch_39-2" x1="246.2449" y1="390.2734" x2="246.2449" y2="278.1432" gradientTransform="matrix(1, 0, 0, 1, 0, 0)" xlink:href="#New_Gradient_Swatch_39"/><linearGradient id="New_Gradient_Swatch_32-5" x1="54.4598" y1="278.1432" x2="435.8282" y2="278.1432" gradientTransform="matrix(1, 0, 0, 1, 0, 0)" xlink:href="#New_Gradient_Swatch_32"/><linearGradient id="New_Gradient_Swatch_32-6" x1="54.4598" y1="200.3777" x2="435.8282" y2="200.3777" gradientTransform="matrix(1, 0, 0, 1, 0, 0)" xlink:href="#New_Gradient_Swatch_32"/><linearGradient id="New_Gradient_Swatch_32-7" x1="54.4598" y1="180.8177" x2="435.8282" y2="180.8177" gradientTransform="matrix(1, 0, 0, 1, 0, 0)" xlink:href="#New_Gradient_Swatch_32"/><linearGradient id="New_Gradient_Swatch_32-9" x1="403.0656" y1="210.6073" x2="439.5909" y2="210.6073" gradientTransform="matrix(1, 0, 0, 1, 0, 0)" xlink:href="#New_Gradient_Swatch_32"/><linearGradient id="New_Gradient_Swatch_32-10" x1="186.9413" y1="32.0778" x2="223.4667" y2="32.0778" gradientTransform="translate(-99.8414 313.5545) rotate(-41.7352)" xlink:href="#New_Gradient_Swatch_32"/><linearGradient id="linear-gradient-15" x1="555.7257" y1="526.8431" x2="555.7257" y2="501.9708" gradientTransform="translate(-137.0013 -211.3344)" gradientUnits="userSpaceOnUse"><stop offset="0" stop-color="#65eca9"/><stop offset="1" stop-color="#517cfe" stop-opacity="0"/></linearGradient><linearGradient id="linear-gradient-16" x1="314.6023" y1="767.9665" x2="314.6023" y2="743.0942" gradientTransform="translate(-236.8779 -452.4578)" xlink:href="#linear-gradient-15"/><linearGradient id="New_Gradient_Swatch_29" x1="127.3601" y1="362.248" x2="242.8445" y2="362.248" gradientUnits="userSpaceOnUse"><stop offset="0" stop-color="#ff38e3"/><stop offset="1" stop-color="#ff9000"/></linearGradient><linearGradient id="New_Gradient_Swatch_29-2" x1="248.365" y1="362.248" x2="363.8494" y2="362.248" xlink:href="#New_Gradient_Swatch_29"/><linearGradient id="New_Gradient_Swatch_32-11" x1="197.7833" y1="378.1489" x2="294.8137" y2="378.1489" gradientTransform="matrix(1, 0, 0, 1, 0, 0)" xlink:href="#New_Gradient_Swatch_32"/></defs><title>logo_Sustainweb3</title><g clip-path="url(#clip-path)"><polygon points="56.201 288.515 56.201 297.997 246.278 333.273 436.354 297.997 436.354 288.515 56.201 288.515"/><polygon points="324.961 137.273 167.594 137.273 88.911 273.557 167.594 409.84 324.961 409.84 403.644 273.557 324.961 137.273" fill="url(#linear-gradient)"/><path d="M324.9649,137.2734h-157.37l-78.68,136.28,78.68,136.29h157.37l78.68-136.29Zm-7.51,259.57h-142.36l-71.17-123.29,71.17-123.28h142.36l71.18,123.28Z" fill="url(#linear-gradient-2)"/><path d="M321.1349,143.9034h-149.71l-74.86,129.65,74.86,129.66h149.71l74.86-129.66Zm-3.68,252.94h-142.36l-71.17-123.29,71.17-123.28h142.36l71.18,123.28Z" fill="url(#linear-gradient-3)"/></g><polygon points="274.995 231.607 217.495 231.607 56.201 288.515 436.354 288.515 274.995 231.607"/><polygon points="436.354 288.515 56.201 288.515 223.578 210.255 268.412 210.224 436.354 288.515" fill="url(#radial-gradient)"/><polygon points="392.412 279.465 100.143 279.465 228.826 219.297 263.295 219.273 392.412 279.465" fill="none" stroke-miterlimit="10" stroke="url(#radial-gradient-2)"/><rect x="56.2009" y="288.5151" width="380.1533" height="9.4816" fill="url(#radial-gradient-3)"/><polygon points="189.312 285.9 188.343 93.325 229.627 135.757 233.523 285.193 189.312 285.9" fill="url(#Áåçûìÿííûé_ãðàäèåíò_68)"/><polygon points="152.797 285.173 158.854 67.09 200.138 109.522 198.6 284.441 152.797 285.173" fill="url(#Áåçûìÿííûé_ãðàäèåíò_282)"/><polygon points="158.854 67.09 165.419 67.684 204.03 109.119 205.957 284.441 197.608 284.441 200.138 109.522 158.854 67.09" fill="url(#Áåçûìÿííûé_ãðàäèåíò_241)"/><polygon points="150.49 285.243 152.085 128.871 156.379 127.488 199.045 166.65 204.872 167.042 208.095 169.214 210.622 285.559 150.49 285.243" fill="url(#New_Gradient_Swatch_31)"/><polygon points="174.502 156.718 174.502 159.889 175.354 159.804 176.206 159.713 176.206 156.542 174.502 156.718" fill="url(#Áåçûìÿííûé_ãðàäèåíò_68-2)"/><polygon points="175.354 156.718 175.354 159.804 176.206 159.713 176.206 156.633 175.354 156.718" fill="#02fffc"/><polygon points="165.924 173.588 165.924 176.759 166.776 176.674 167.628 176.582 167.628 173.412 165.924 173.588" fill="url(#Áåçûìÿííûé_ãðàäèåíò_68-3)"/><polygon points="166.776 173.588 166.776 176.674 167.628 176.582 167.628 173.503 166.776 173.588" fill="#02fffc"/><polygon points="168.732 177.432 168.732 180.603 169.584 180.519 170.435 180.427 170.435 177.256 168.732 177.432" fill="url(#Áåçûìÿííûé_ãðàäèåíò_68-4)"/><polygon points="169.584 177.432 169.584 180.519 170.435 180.427 170.435 177.348 169.584 177.432" fill="#02fffc"/><polygon points="165.073 202.502 165.073 205.673 165.924 205.589 166.776 205.497 166.776 202.326 165.073 202.502" fill="url(#Áåçûìÿííûé_ãðàäèåíò_68-5)"/><polygon points="165.924 202.502 165.924 205.589 166.776 205.497 166.776 202.418 165.924 202.502" fill="#02fffc"/><polygon points="176.896 212.692 176.896 215.862 177.747 215.778 178.599 215.686 178.599 212.516 176.896 212.692" fill="url(#Áåçûìÿííûé_ãðàäèåíò_68-6)"/><polygon points="177.747 212.692 177.747 215.778 178.599 215.686 178.599 212.607 177.747 212.692" fill="#02fffc"/><polygon points="155.047 156.721 155.047 159.892 155.899 159.808 156.751 159.716 156.751 156.545 155.047 156.721" fill="url(#Áåçûìÿííûé_ãðàäèåíò_68-7)"/><polygon points="155.899 156.721 155.899 159.808 156.751 159.716 156.751 156.637 155.899 156.721" fill="#02fffc"/><polygon points="194.698 189.789 194.698 192.96 195.402 192.875 196.107 192.784 196.107 189.613 194.698 189.789" fill="url(#Áåçûìÿííûé_ãðàäèåíò_68-8)"/><polygon points="195.402 189.789 195.402 192.875 196.107 192.784 196.107 189.705 195.402 189.789" fill="#02fffc"/><polygon points="187.6 206.659 187.6 209.83 188.304 209.745 189.009 209.654 189.009 206.483 187.6 206.659" fill="url(#Áåçûìÿííûé_ãðàäèåíò_68-9)"/><polygon points="188.304 206.659 188.304 209.745 189.009 209.654 189.009 206.574 188.304 206.659" fill="#02fffc"/><polygon points="189.923 210.504 189.923 213.675 190.628 213.59 191.332 213.498 191.332 210.327 189.923 210.504" fill="url(#Áåçûìÿííûé_ãðàäèåíò_68-10)"/><polygon points="190.628 210.504 190.628 213.59 191.332 213.498 191.332 210.419 190.628 210.504" fill="#02fffc"/><polygon points="186.895 235.573 186.895 238.744 187.6 238.66 188.304 238.568 188.304 235.397 186.895 235.573" fill="url(#Áåçûìÿííûé_ãðàäèåíò_68-11)"/><polygon points="187.6 235.573 187.6 238.66 188.304 238.568 188.304 235.489 187.6 235.573" fill="#02fffc"/><polygon points="196.678 245.763 196.678 248.934 197.383 248.849 198.088 248.757 198.088 245.587 196.678 245.763" fill="url(#Áåçûìÿííûé_ãðàäèåíò_68-12)"/><polygon points="197.383 245.763 197.383 248.849 198.088 248.757 198.088 245.678 197.383 245.763" fill="#02fffc"/><polygon points="178.599 189.793 178.599 192.964 179.304 192.879 180.008 192.787 180.008 189.616 178.599 189.793" fill="url(#Áåçûìÿííûé_ãðàäèåíò_68-13)"/><polygon points="179.304 189.793 179.304 192.879 180.008 192.787 180.008 189.708 179.304 189.793" fill="#02fffc"/><path d="M282,188.6579a2.3715,2.3715,0,0,0-1.0368,1.9051s.0078.7408.9643.1168-.0111-.0369-.0111-.0369Z" fill="#939598"/><path d="M280.7673,248.9572l.2522-7.5592s-2.124-.49-2.3838,1.2375S279.1681,245.9275,280.7673,248.9572Z" fill="#939598"/><polygon points="273.53 103.585 283.583 106.392 281.967 188.657 270.163 155.618 273.53 103.585" fill="url(#New_Gradient_Swatch_35)"/><polygon points="307.311 86.919 284.516 58.889 279.706 303.747 330.11 303.527 329.022 278.9 315.856 152.327 307.311 86.919" fill="url(#linear-gradient-4)"/><polygon points="301.536 251.304 325.361 246.528 323.823 232.93 301.949 248.008 301.536 251.304" fill="url(#radial-gradient-4)"/><polygon points="323.823 232.93 301.536 251.304 300.663 231.286 322.843 224.261 323.823 232.93" fill="url(#New_Gradient_Swatch_35-2)"/><polygon points="300.663 231.286 304.136 227.912 297.94 193.014 300.663 231.286" fill="url(#New_Gradient_Swatch_35-3)"/><polygon points="300.663 231.286 304.136 227.912 318.445 223.113 322.843 224.261 300.663 231.286" fill="url(#New_Gradient_Swatch_35-4)"/><polygon points="322.843 224.261 318.445 223.113 312.774 135.221 322.843 224.261" fill="url(#New_Gradient_Swatch_35-5)"/><path d="M278.6289,242.6829c-.0267.2352.07-.9177.08-1.1551.374-8.8934,1.7391-41.4789,1.9054-47.2479.1-3.4742.2908-4.3481.614-4.8528a3.0346,3.0346,0,0,1,.7384-.77c-2.7823,3.3087,1.599,1.524,1.599,1.524,4.0371-1.9669,5.8144-3.8218,6.5935-5.1285a1.2952,1.2952,0,0,1,2.08-.1573l4.6207,5.3684a4.3858,4.3858,0,0,1,1.0561,2.5492l4.1092,57.5588a1.0372,1.0372,0,0,1-1.5835.9323c-3.5116-2.1246-11.4748-7.4743-17.8258-9.5137-2.2736-.73-3.3285-.3957-3.7765.365A1.6452,1.6452,0,0,0,278.6289,242.6829Z" fill="url(#New_Gradient_Swatch_2)"/><polygon points="307.311 86.919 327.132 85.307 329.022 278.9 307.311 86.919" fill="url(#New_Gradient_Swatch_35-6)"/><polygon points="284.516 58.889 302.155 73.355 327.132 85.307 307.311 86.919 284.516 58.889" fill="#47176f"/><polygon points="304.136 227.912 318.445 223.113 312.774 135.221 297.916 192.813 304.136 227.912" fill="url(#New_Gradient_Swatch_27)"/><polygon points="312.774 135.221 297.916 192.813 270.163 155.618 273.53 103.585 312.774 135.221" fill="url(#New_Gradient_Swatch_25)"/><path d="M284.87,268.9176a160.7482,160.7482,0,0,1,18.6488-1.2689c6.4414-.0445,13.4338.8543,19.008,1.2689,0,0,.5426-3.8068-.6511-5.9217a154.8126,154.8126,0,0,0-18.357-1.2625,77.0149,77.0149,0,0,0-18.6487,1.7912S283.7847,267.4372,284.87,268.9176Z" fill="url(#New_Gradient_Swatch_30)"/><polygon points="284.87 268.918 287.691 269.552 292.466 269.552 315.473 269.552 319.794 269.552 322.527 268.918 303.698 266.508 284.87 268.918" fill="url(#linear-gradient-5)"/><polygon points="293.181 267.854 303.698 266.508 314.649 267.91 318.802 302.053 289.102 302.053 293.181 267.854" fill="url(#linear-gradient-6)"/><path d="M290.0929,293.7466s8.268-14.9975,25.072-19.36l-.5162-6.4767-10.95-1.4012-10.5172,1.3457Z" fill="url(#linear-gradient-7)"/><polygon points="322.83 301.232 323.319 303.241 286.133 303.241 287.761 301.232 322.83 301.232" fill="url(#linear-gradient-8)"/><polygon points="315.574 279.518 314.649 267.91 315.96 268.077 318.627 292.119 319.794 302.65 317.308 301.276 316.419 290.118 315.574 279.518" fill="url(#New_Gradient_Swatch_30-2)"/><polygon points="291.026 268.13 293.181 267.854 291.726 280.332 291.451 284.34 291.028 290.499 290.292 301.232 289.102 302.65 291.026 268.13" fill="url(#New_Gradient_Swatch_30-3)"/><polygon points="315.96 268.077 319.794 269.552 323.319 302.65 319.794 302.65 318.398 290.059 315.375 289.093 314.78 281.738 317.318 280.319 315.96 268.077" fill="url(#New_Gradient_Swatch_25-2)"/><polygon points="287.691 269.552 291.026 268.13 290.339 280.217 293.181 281.711 293.19 288.829 289.805 289.884 289.102 302.65 285.593 303.241 287.691 269.552" fill="url(#New_Gradient_Swatch_25-3)"/><polygon points="280.069 306.303 280.069 302.033 330.365 301.541 330.365 305.556 280.069 306.303" fill="url(#linear-gradient-9)"/><polygon points="314.78 281.755 317.322 280.353 315.654 280.521 314.78 281.755" fill="url(#New_Gradient_Swatch_30-4)"/><polygon points="290.304 280.217 291.762 279.808 293.181 281.755 290.304 280.217" fill="url(#New_Gradient_Swatch_30-5)"/><polygon points="293.19 288.77 289.763 289.884 290.969 291.36 293.19 288.77" fill="url(#New_Gradient_Swatch_30-6)"/><path d="M274.1763,81.08h0a17.6923,17.6923,0,0,0-6.2493-12.3563l-2.9179-2.46.1041,3.6233a26.7958,26.7958,0,0,1-.5608,6.3459c-.2743,1.2894-.5467,2.1611-.9322,3.7917l-.05,9.3249,7.3508-4.3735Z" fill="url(#New_Gradient_Swatch_2-2)"/><path d="M267.62,80.0244l-4.05.44.6075-5.997.8312-8.2042a10.6878,10.6878,0,0,1,4.0365,4.2014c1.6421,2.991,4.75,7.2722,3.167,11.7294a27.4085,27.4085,0,0,1-4.5465,7.8588Z" fill="url(#Áåçûìÿííûé_ãðàäèåíò_257)"/><polygon points="267.666 162.51 267.666 69.428 263.57 79.714 263.57 162.51 267.666 162.51" fill="url(#linear-gradient-10)"/><path d="M273.2253,76.9744l-5.5592-7.5462V162.51l6.5173,2.6-.1311-86.9421A1.2784,1.2784,0,0,0,273.2253,76.9744Z" fill="url(#Áåçûìÿííûé_ãðàäèåíò_257-2)"/><rect x="265.483" y="132.1905" width="0.2705" height="0.6024" transform="translate(531.2366 264.9834) rotate(-180)" fill="#fed843"/><rect x="266.5413" y="118.3924" width="0.2705" height="0.6023" transform="translate(533.3532 237.3871) rotate(-180)" fill="#fed843"/><path d="M264.6586,79.6672l-.0126.0162a1.9973,1.9973,0,0,0-.3836,1.2224v23.8749l2.5494-.52V80.65a2.0543,2.0543,0,0,0-.1405-.6557A1.1873,1.1873,0,0,0,264.6586,79.6672Z" fill="#02abfc"/><path d="M274.0577,81.7759l.0267,17.69s-1.4128,4.2413-3.2091,4.5744c-1.3475.25-3.2092-3.8329-3.2092-1.812V90.0531S271.45,80.64,274.0577,81.7759Z" fill="url(#New_Gradient_Swatch_23)"/><path d="M267.6661,90.0531a12.0051,12.0051,0,0,0,6.51-8.9731c.91-6.51-6.1075-13.3878-9.1672-14.8165C265.0091,66.2635,273.5615,71.8138,267.6661,90.0531Z" fill="url(#New_Gradient_Swatch_23-2)"/><path d="M267.58,117.2694l.0862-15.6628a7.9146,7.9146,0,0,0,7.6548-4.1053L274.0844,127.47s-6.6528-10.0873-6.4183-2.2286Z" fill="url(#New_Gradient_Swatch_23-3)"/><path d="M221.7655,86.6015h0a17.6928,17.6928,0,0,1,6.2492-12.3564l2.918-2.46-.1041,3.6233a26.79,26.79,0,0,0,.5607,6.3459c.2743,1.2894.5467,2.1611.9322,3.7917l.05,9.3249-7.3509-4.3735Z" fill="url(#New_Gradient_Swatch_2-3)"/><path d="M228.3217,85.5458l4.05.44-.6076-5.9969-.8311-8.2043a10.6877,10.6877,0,0,0-4.0366,4.2014c-1.6421,2.991-4.75,7.2723-3.167,11.73a27.4089,27.4089,0,0,0,4.5465,7.8587Z" fill="url(#Áåçûìÿííûé_ãðàäèåíò_257-3)"/><polygon points="228.276 168.032 228.276 74.95 232.371 85.236 232.371 168.032 228.276 168.032" fill="url(#linear-gradient-11)"/><path d="M222.7165,82.4959l5.5591-7.5463v93.082l-6.5173,2.6005.1311-86.9421A1.2783,1.2783,0,0,1,222.7165,82.4959Z" fill="url(#Áåçûìÿííûé_ãðàäèåíò_257-4)"/><rect x="230.1882" y="137.7119" width="0.2705" height="0.6024" fill="#fed843"/><rect x="229.1299" y="123.9138" width="0.2705" height="0.6023" fill="#fed843"/><path d="M231.2831,85.1886l.0127.0163a1.9968,1.9968,0,0,1,.3835,1.2224v23.8748l-2.5494-.52V86.171a2.0577,2.0577,0,0,1,.1405-.6558A1.1873,1.1873,0,0,1,231.2831,85.1886Z" fill="#02abfc"/><path d="M221.884,87.2973l-.0267,17.69s1.4129,4.2414,3.2091,4.5745c1.3475.25,3.2092-3.833,3.2092-1.8121V95.5745S224.4913,86.1616,221.884,87.2973Z" fill="url(#New_Gradient_Swatch_23-4)"/><path d="M228.2756,95.5745a12.0048,12.0048,0,0,1-6.51-8.973c-.91-6.51,6.1074-13.3879,9.1672-14.8166C230.9327,71.7849,222.38,77.3352,228.2756,95.5745Z" fill="url(#New_Gradient_Swatch_23-5)"/><path d="M228.3618,122.7908l-.0862-15.6628a7.9146,7.9146,0,0,1-7.6548-4.1053l1.2365,29.9687s6.6529-10.0873,6.4183-2.2286Z" fill="url(#New_Gradient_Swatch_23-6)"/><polygon points="311.699 278.684 313.08 82.317 298.156 86.557 295.28 275.744 311.699 278.684" fill="url(#New_Gradient_Swatch_19)"/><polygon points="313.08 82.317 322.709 87.806 322.284 285.268 297.859 277.245 313.08 82.317" fill="url(#New_Gradient_Swatch_23-7)"/><rect x="307.4773" y="93.9043" width="0.4974" height="1.1076" transform="translate(615.452 188.9163) rotate(-180)" fill="#fed843"/><rect x="307.726" y="119.3019" width="0.4974" height="1.1076" transform="translate(615.9494 239.7115) rotate(-180)" fill="#fed843"/><rect x="300.6426" y="109.6873" width="0.4975" height="1.1076" transform="translate(601.7828 220.4822) rotate(-180)" fill="#fed843"/><rect x="305.5403" y="122.7193" width="0.4974" height="1.1076" transform="translate(611.5779 246.5463) rotate(-180)" fill="#fed843"/><polygon points="288.35 119.66 268.494 124.038 266.541 266.707 295.301 270.776 288.35 119.66" fill="#120943"/><polygon points="288.35 119.66 294.443 122.828 300.357 269.708 287.755 269.708 288.35 119.66" fill="url(#Áåçûìÿííûé_ãðàäèåíò_68-14)"/><rect x="279.5174" y="137.5463" width="0.7146" height="1.5913" transform="translate(559.7495 276.684) rotate(-180)" fill="#fe9f43"/><rect x="270.5675" y="141.322" width="0.7146" height="1.5913" transform="translate(541.8496 284.2354) rotate(-180)" fill="#fe9f43"/><rect x="277.3994" y="133.323" width="0.7146" height="1.5913" transform="translate(555.5135 268.2373) rotate(-180)" fill="#fe9f43"/><polygon points="306.398 130.203 307.39 118.385 333.74 111.95 333.74 128.038 306.398 130.203" fill="url(#Áåçûìÿííûé_ãðàäèåíò_133)"/><polygon points="333.74 111.95 344.826 113.738 346.131 128.416 333.74 127.112 333.74 111.95" fill="url(#Áåçûìÿííûé_ãðàäèåíò_121)"/><polygon points="331.166 298.731 326.265 121.077 300.562 125.208 292.68 298.731 331.166 298.731" fill="url(#Áåçûìÿííûé_ãðàäèåíò_133-2)"/><path d="M320.324,170.785l-19.5208,2.3744s-18.491,10.5642-23.6578,31.06l-10.5687,94.5118H292.68Z" fill="url(#New_Gradient_Swatch_35-7)"/><path d="M303.3809,173.1594l16.8734-2.0524.07-.322-19.5208,2.3744s-18.491,10.5642-23.6578,31.06l-10.5687,94.5118h2.5777L279.7229,204.22C284.89,183.7236,303.3809,173.1594,303.3809,173.1594Z" fill="url(#New_Gradient_Swatch_32)"/><path d="M318.2747,170.785h2.0493l5.3488,127.9463H290.631l2.3839-91.4232S296.0806,181.0344,318.2747,170.785Z" fill="url(#New_Gradient_Swatch_32-2)"/><path d="M320.324,170.785l7.398,127.9463H292.68l2.384-91.4232S298.13,181.0344,320.324,170.785Z" fill="url(#Áåçûìÿííûé_ãðàäèåíò_192)"/><polygon points="326.265 121.077 350.928 123.672 366.352 297.793 331.166 298.731 326.265 121.077" fill="url(#linear-gradient-12)"/><polygon points="326.265 121.077 328.643 121.327 335.782 298.608 331.166 298.731 326.265 121.077" fill="url(#New_Gradient_Swatch_32-3)"/><polygon points="326.265 121.077 324.383 121.327 329.161 298.728 331.166 298.731 326.265 121.077" fill="url(#Áåçûìÿííûé_ãðàäèåíò_97)"/><polygon points="348.553 123.422 363.586 297.632 366.352 297.793 350.928 123.672 348.553 123.422" fill="url(#New_Gradient_Swatch_32-4)"/><polygon points="339.121 147.949 339.121 149.961 339.983 149.902 339.983 147.894 339.121 147.949" fill="#02fffc"/><polygon points="346.962 154.07 346.962 156.083 347.824 156.023 347.824 154.015 346.962 154.07" fill="#02fffc"/><polygon points="342.395 166.802 342.395 168.815 343.257 168.755 343.257 166.747 342.395 166.802" fill="#02fffc"/><polygon points="350.23 173.449 350.23 175.462 351.092 175.402 351.092 173.394 350.23 173.449" fill="#02fffc"/><polygon points="333.309 135.854 333.309 137.866 334.171 137.807 334.171 135.799 333.309 135.854" fill="#02fffc"/><polygon points="349.977 179.274 349.977 181.281 350.777 181.221 350.777 179.219 349.977 179.274" fill="#02fffc"/><polygon points="336.776 198.824 336.776 200.831 337.576 200.772 337.576 198.769 336.776 198.824" fill="#02fffc"/><polygon points="344.557 192.744 344.557 194.751 345.357 194.691 345.357 192.689 344.557 192.744" fill="#02fffc"/><polygon points="341.12 209.046 341.12 211.053 341.92 210.994 341.92 208.991 341.12 209.046" fill="#02fffc"/><polygon points="352.225 215.672 352.225 217.679 353.025 217.619 353.025 215.617 352.225 215.672" fill="#02fffc"/><polygon points="333.34 160.503 333.34 162.51 334.14 162.451 334.14 160.448 333.34 160.503" fill="#02fffc"/><polygon points="333.34 179.586 333.34 181.593 334.14 181.534 334.14 179.531 333.34 179.586" fill="#02fffc"/><polygon points="355.451 220.811 355.451 222.818 356.251 222.758 356.251 220.756 355.451 220.811" fill="#02fffc"/><polygon points="346.593 225.462 346.593 227.469 347.393 227.409 347.393 225.407 346.593 225.462" fill="#02fffc"/><polygon points="354.251 234.513 354.251 236.52 355.051 236.46 355.051 234.458 354.251 234.513" fill="#02fffc"/><polygon points="346.593 250.583 346.593 252.59 347.393 252.53 347.393 250.528 346.593 250.583" fill="#02fffc"/><polygon points="357.699 257.209 357.699 259.216 358.499 259.156 358.499 257.154 357.699 257.209" fill="#02fffc"/><polygon points="337.176 220.813 337.176 222.82 337.976 222.76 337.976 220.758 337.176 220.813" fill="#02fffc"/><polygon points="314.384 191.84 314.384 193.901 315.245 193.846 316.106 193.787 316.106 191.725 314.384 191.84" fill="url(#Áåçûìÿííûé_ãðàäèåíò_68-15)"/><polygon points="315.245 191.84 315.245 193.846 316.106 193.787 316.106 191.785 315.245 191.84" fill="#02fffc"/><polygon points="299.317 207.559 299.317 209.621 300.177 209.566 301.038 209.507 301.038 207.445 299.317 207.559" fill="url(#Áåçûìÿííûé_ãðàäèåíò_68-16)"/><polygon points="300.177 207.559 300.177 209.566 301.038 209.507 301.038 207.504 300.177 207.559" fill="#02fffc"/><polygon points="309.423 199.915 309.423 201.977 310.284 201.922 311.144 201.862 311.144 199.8 309.423 199.915" fill="url(#Áåçûìÿííûé_ãðàäèåíò_68-17)"/><polygon points="310.284 199.915 310.284 201.922 311.144 201.862 311.144 199.86 310.284 199.915" fill="#02fffc"/><polygon points="317.306 201.003 317.306 203.065 318.166 203.01 319.027 202.95 319.027 200.889 317.306 201.003" fill="url(#Áåçûìÿííûé_ãðàäèåíò_68-18)"/><polygon points="318.166 201.003 318.166 203.01 319.027 202.95 319.027 200.948 318.166 201.003" fill="#02fffc"/><polygon points="319.94 233.088 319.94 235.15 320.801 235.095 321.662 235.035 321.662 232.973 319.94 233.088" fill="url(#Áåçûìÿííûé_ãðàäèåíò_68-19)"/><polygon points="320.801 233.088 320.801 235.095 321.662 235.035 321.662 233.033 320.801 233.088" fill="#02fffc"/><polygon points="299.496 238.109 299.496 240.171 300.356 240.116 301.217 240.056 301.217 237.994 299.496 238.109" fill="url(#Áåçûìÿííûé_ãðàäèåíò_68-20)"/><polygon points="300.356 238.109 300.356 240.116 301.217 240.056 301.217 238.054 300.356 238.109" fill="#02fffc"/><polygon points="306.451 216.662 306.451 218.724 307.311 218.669 308.172 218.609 308.172 216.548 306.451 216.662" fill="url(#Áåçûìÿííûé_ãðàäèåíò_68-21)"/><polygon points="307.311 216.662 307.311 218.669 308.172 218.609 308.172 216.607 307.311 216.662" fill="#02fffc"/><polygon points="319.463 215.633 319.463 217.695 320.324 217.64 321.185 217.581 321.185 215.519 319.463 215.633" fill="url(#Áåçûìÿííûé_ãðàäèåíò_68-22)"/><polygon points="320.324 215.633 320.324 217.64 321.185 217.581 321.185 215.578 320.324 215.633" fill="#02fffc"/><polygon points="313.08 224.376 313.08 226.438 313.941 226.383 314.801 226.323 314.801 224.261 313.08 224.376" fill="url(#Áåçûìÿííûé_ãðàäèåíò_68-23)"/><polygon points="313.941 224.376 313.941 226.383 314.801 226.323 314.801 224.321 313.941 224.376" fill="#02fffc"/><polygon points="312.22 208.647 312.22 210.709 313.08 210.654 313.941 210.595 313.941 208.533 312.22 208.647" fill="url(#Áåçûìÿííûé_ãðàäèåíò_68-24)"/><polygon points="313.08 208.647 313.08 210.654 313.941 210.595 313.941 208.592 313.08 208.647" fill="#02fffc"/><polygon points="301.167 226.226 301.167 228.288 302.028 228.233 302.889 228.173 302.889 226.111 301.167 226.226" fill="url(#Áåçûìÿííûé_ãðàäèåíò_68-25)"/><polygon points="302.028 226.226 302.028 228.233 302.889 228.173 302.889 226.171 302.028 226.226" fill="#02fffc"/><polygon points="310.892 244.172 310.892 246.234 311.753 246.179 312.613 246.119 312.613 244.057 310.892 244.172" fill="url(#Áåçûìÿííûé_ãðàäèåíò_68-26)"/><polygon points="311.753 244.172 311.753 246.179 312.613 246.119 312.613 244.117 311.753 244.172" fill="#02fffc"/><polygon points="310.284 234.873 310.284 236.935 311.144 236.88 312.005 236.82 312.005 234.758 310.284 234.873" fill="url(#Áåçûìÿííûé_ãðàäèåíò_68-27)"/><polygon points="311.144 234.873 311.144 236.88 312.005 236.82 312.005 234.818 311.144 234.873" fill="#02fffc"/><polygon points="304.047 192.041 304.047 194.102 304.908 194.047 305.769 193.988 305.769 191.926 304.047 192.041" fill="url(#Áåçûìÿííûé_ãðàäèåíò_68-28)"/><polygon points="304.908 192.041 304.908 194.047 305.769 193.988 305.769 191.986 304.908 192.041" fill="#02fffc"/><polygon points="251.632 253.494 246.087 92.873 216.854 133.076 191.571 218.469 184.052 263.369 251.632 253.494" fill="url(#New_Gradient_Swatch_30-7)"/><polygon points="283.335 252.555 251.632 253.494 238.168 128.422 246.087 92.873 270.298 101.751 273.285 156.205 281.27 217.953 283.335 252.555" fill="url(#linear-gradient-13)"/><path d="M281.7881,224.2158l-33.8467-31.8383h0c-22.5245-28.5415-33.3532-20.62-31.4691-52.9358a190.7471,190.7471,0,0,0,.35-20.5295l-.9865-19.4338,30.2506-6.6051.4637,21.5159q.0482,2.2317.1394,4.462c1.1614,28.3607,2.8551,36.333,13.349,57.7531a135.2914,135.2914,0,0,0,14.4849,23.2773l5.9458,7.6834Z" fill="url(#New_Gradient_Swatch_28)"/><polygon points="182.405 273.794 188.343 192.71 245.728 172.983 244.892 262.289 182.405 273.794" fill="url(#New_Gradient_Swatch_27-2)"/><polygon points="245.728 172.983 281.737 223.433 283.86 256 244.892 262.289 245.728 172.983" fill="url(#Áåçûìÿííûé_ãðàäèåíò_151)"/><path d="M281.3,225.8353V215.5766s-14.0971-14.7321-44.1621-14.688a142.2877,142.2877,0,0,0-50.0776,9.335l-2.5986,27.7708s27.046-18.5556,53.792-17.5259C267.1781,221.582,281.3,225.8353,281.3,225.8353Z" fill="url(#New_Gradient_Swatch_39)"/><path d="M186.4548,218.4982s44.8675-22.0535,94.8157-.5456l5.6426,81.27-108.69-.1809Z" fill="url(#New_Gradient_Swatch_18)"/><polygon points="56.12 278.143 145.344 242.597 351.495 242.597 436.354 278.143 387.162 280.023 56.12 278.143" fill="url(#linear-gradient-14)"/><polygon points="436.37 331.684 246.237 390.273 56.12 331.684 56.12 278.143 436.37 278.143 436.37 331.684" fill="url(#New_Gradient_Swatch_39-2)"/><line x1="56.9598" y1="278.1432" x2="56.9598" y2="278.1432" fill="none" stroke-linecap="round" stroke-linejoin="round" stroke-width="5" stroke="url(#New_Gradient_Swatch_32-5)"/><path d="M63.7323,227.9337A187.3069,187.3069,0,0,1,89.17,172.8218" fill="none" stroke-linecap="round" stroke-linejoin="round" stroke-width="5" stroke-dasharray="28.6373 25.8659 0 12.933" stroke="url(#New_Gradient_Swatch_32-6)"/><path d="M92.8848,167.5294A187.9292,187.9292,0,0,1,245.144,89.959c101.7669,0,184.6666,80.78,188.0751,181.7174" fill="none" stroke-linecap="round" stroke-linejoin="round" stroke-width="5" stroke-dasharray="0 50.8081 28.6373 25.8659 0 12.933" stroke="url(#New_Gradient_Swatch_32-7)"/><line x1="433.3283" y1="278.1432" x2="433.3283" y2="278.1432" fill="none" stroke-linecap="round" stroke-linejoin="round" stroke-width="5" stroke="url(#New_Gradient_Swatch_32-5)"/><circle cx="421.3282" cy="210.6073" r="16.2627" fill="none" stroke-linecap="round" stroke-linejoin="round" stroke-width="4" stroke-dasharray="0 55 31 28 0 14" stroke="url(#New_Gradient_Swatch_32-9)"/><circle cx="74.6417" cy="200.8898" r="16.2627" fill="none" stroke-linecap="round" stroke-linejoin="round" stroke-width="4" stroke-dasharray="0 55 31 28 0 14" stroke="url(#New_Gradient_Swatch_32-10)"/><path d="M107.742,329.162a19.8335,19.8335,0,0,1-6.0137-.915,11.2906,11.2906,0,0,1-4.5566-2.5391l2.247-3.7861a12.9859,12.9859,0,0,0,3.8389,1.9346,13.3181,13.3181,0,0,0,4.1514.791,6.75,6.75,0,0,0,4.15-1.041,3.7507,3.7507,0,0,0,1.3418-3.1621,5.85,5.85,0,0,0-.1241-1.3418,2.8371,2.8371,0,0,0-.5625-1.0616,4.1749,4.1749,0,0,0-1.3-1.0195,17.0218,17.0218,0,0,0-2.32-.9883q-.624-.208-2.1113-.6865t-2.1748-.7285a13.4317,13.4317,0,0,1-5.4307-3.3389,7.6376,7.6376,0,0,1-1.6855-5.2119,7.4321,7.4321,0,0,1,1.4052-4.5566,8.174,8.174,0,0,1,3.7344-2.7881,14.7811,14.7811,0,0,1,5.3262-.8955,19.7553,19.7553,0,0,1,6.3047.791,11.821,11.821,0,0,1,4.2441,2.7051l-2.7041,3.4951a9.8778,9.8778,0,0,0-7.0957-2.4346,8.3176,8.3176,0,0,0-4.0254.8535,2.7847,2.7847,0,0,0-1.5508,2.6006,5.6467,5.6467,0,0,0,.1455,1.4043,2.6874,2.6874,0,0,0,.6143,1.082,4.5356,4.5356,0,0,0,1.3418.9785,20.2394,20.2394,0,0,0,2.33.9668q.52.1875,2.1748.7178t2.4658.8428a11.9257,11.9257,0,0,1,5.16,3.3916,8.6234,8.6234,0,0,1,1.456,5.3262,8.5044,8.5044,0,0,1-.8945,3.9843,6.8979,6.8979,0,0,1-2.4346,2.6954,11.7626,11.7626,0,0,1-3.4121,1.456A16.2473,16.2473,0,0,1,107.742,329.162Z" fill="#fff"/><path d="M136.6209,329.162a16.8023,16.8023,0,0,1-5.1182-.707,10.1212,10.1212,0,0,1-3.5478-1.8623,8.7893,8.7893,0,0,1-2.1739-2.8711,13.1924,13.1924,0,0,1-1.1445-3.5059,23.3625,23.3625,0,0,1-.3125-3.9951V298.39h5.2852v18.06a13.87,13.87,0,0,0,.3535,3.3086,7.3632,7.3632,0,0,0,.9677,2.3506,5.1859,5.1859,0,0,0,1.5186,1.4981,5.9367,5.9367,0,0,0,1.9141.8115,10.081,10.081,0,0,0,2.2373.23,9.0539,9.0539,0,0,0,2.7978-.3955,5.8807,5.8807,0,0,0,2.1953-1.3008,5.7546,5.7546,0,0,0,1.4981-2.5488,13.2752,13.2752,0,0,0,.52-3.9737V298.39h5.2842v17.8515a24.43,24.43,0,0,1-.291,3.9532,13.0553,13.0553,0,0,1-1.1133,3.496,8.8162,8.8162,0,0,1-2.1533,2.8916,9.8861,9.8861,0,0,1-3.5479,1.8731A17.06,17.06,0,0,1,136.6209,329.162Z" fill="#fff"/><path d="M165.2713,329.162a19.8335,19.8335,0,0,1-6.0137-.915,11.2906,11.2906,0,0,1-4.5566-2.5391l2.247-3.7861a12.9859,12.9859,0,0,0,3.8389,1.9346,13.3181,13.3181,0,0,0,4.1514.791,6.75,6.75,0,0,0,4.15-1.041,3.7506,3.7506,0,0,0,1.3417-3.1621,5.8512,5.8512,0,0,0-.124-1.3418,2.8371,2.8371,0,0,0-.5625-1.0616,4.1749,4.1749,0,0,0-1.3-1.0195,17.0273,17.0273,0,0,0-2.32-.9883q-.624-.208-2.1113-.6865t-2.1748-.7285a13.4317,13.4317,0,0,1-5.4307-3.3389,7.6376,7.6376,0,0,1-1.6855-5.2119,7.4321,7.4321,0,0,1,1.4052-4.5566,8.174,8.174,0,0,1,3.7344-2.7881,14.7811,14.7811,0,0,1,5.3262-.8955,19.7553,19.7553,0,0,1,6.3047.791,11.821,11.821,0,0,1,4.2441,2.7051l-2.7041,3.4951a9.8778,9.8778,0,0,0-7.0957-2.4346,8.3176,8.3176,0,0,0-4.0254.8535,2.7847,2.7847,0,0,0-1.5508,2.6006,5.6467,5.6467,0,0,0,.1455,1.4043,2.6874,2.6874,0,0,0,.6143,1.082,4.5356,4.5356,0,0,0,1.3418.9785,20.2394,20.2394,0,0,0,2.33.9668q.52.1875,2.1748.7178t2.4658.8428a11.9257,11.9257,0,0,1,5.16,3.3916,8.6234,8.6234,0,0,1,1.456,5.3262,8.5044,8.5044,0,0,1-.8945,3.9843,6.8979,6.8979,0,0,1-2.4346,2.6954,11.7637,11.7637,0,0,1-3.4121,1.456A16.2473,16.2473,0,0,1,165.2713,329.162Z" fill="#fff"/><path d="M188.0125,328.6835V302.9247H178.67V298.39h24.1152v4.5351h-9.4882v25.7588Z" fill="#fff"/><path d="M203.2644,328.6835,215.4363,298.39h5.3672L233.08,328.6835h-5.9717l-2.9336-7.3867H211.94l-2.8711,7.3867Zm10.6524-12.3174h8.1152q-2.3936-7.0943-4.0166-11.7968Q216.6633,308.5008,213.9168,316.3661Z" fill="#fff"/><path d="M236.68,328.6835V298.39h5.2851v30.2939Z" fill="#fff"/><path d="M249.4959,328.6835V298.39h5.5967q14.44,20.9312,15.3759,22.3047V298.39h5.0352v30.2939h-5.6172q-13.9614-20.1621-15.501-22.3457v22.3457Z" fill="#fff"/><path d="M289.3816,328.6835,281.33,298.39h3.3281l5.8887,23.3652.749,3.6q1.4355-5.3686,4.3594-15.126,2.9223-9.7587,3.5263-11.8388h3.1l6.9707,23.4277.9151,3.35q1.2495-5.2221,3.6-14.97T316.617,298.39h3.1836l-7.7813,30.2939h-3.6621l-7.6357-26.2158-7.72,26.2158Z" fill="#fff"/><path d="M326.1053,328.6835V298.39h17.498v2.58H329.2058V311.789h13.586v2.58h-13.586v11.7343h15.0225v2.58Z" fill="#fff"/><path d="M351.3015,328.6835V298.39h8.3018q11.4024,0,11.4023,7.4072a7.3536,7.3536,0,0,1-1.3837,4.66,6.42,6.42,0,0,1-4.0674,2.2676,8.0544,8.0544,0,0,1,5.0976,2.4033,8.2626,8.2626,0,0,1-.8955,11.3194q-2.7261,2.2368-7.8642,2.2363Zm3.1211-2.58h7.1368a9.3838,9.3838,0,0,0,5.7216-1.4775,5.0642,5.0642,0,0,0,1.9561-4.3066q0-3.2242-1.9248-4.66t-6.44-1.4365h-6.45Zm.0205-14.4189h6.2627a8.619,8.619,0,0,0,5.3057-1.3623,5.0841,5.0841,0,0,0,1.7686-4.2969,4.175,4.175,0,0,0-1.9659-3.8594,11.662,11.662,0,0,0-5.94-1.1963h-5.4307Z" fill="#fff"/><path d="M386.6931,329.162a16.0656,16.0656,0,0,1-4.5146-.6133,15.0115,15.0115,0,0,1-3.2461-1.28l.7705-2.3721a16.4816,16.4816,0,0,0,3.2451,1.1865,14.05,14.05,0,0,0,3.5791.499,7.9841,7.9841,0,0,0,5.3262-1.6855,6.27,6.27,0,0,0-.0313-9.2061,9.1579,9.1579,0,0,0-5.8154-1.6543h-1.8935l-.0411-2.663h1.8936q7.2188,0,7.22-5.8262a4.4619,4.4619,0,0,0-1.831-3.7559,7.59,7.59,0,0,0-4.7022-1.3838,10.8575,10.8575,0,0,0-4.3388.8643,8.3672,8.3672,0,0,0-3.2139,2.3193l-1.4981-1.956a9.5734,9.5734,0,0,1,3.8487-2.8194,13.972,13.972,0,0,1,5.41-.9882,10.4507,10.4507,0,0,1,6.6787,2.07,6.7673,6.7673,0,0,1,2.6211,5.6074,7.4686,7.4686,0,0,1-1.5078,4.5674,6.7639,6.7639,0,0,1-4.2343,2.5908,7.6382,7.6382,0,0,1,4.7646,2.6631,7.7278,7.7278,0,0,1,1.7686,5.0762A7.89,7.89,0,0,1,394.1,326.78,11.1651,11.1651,0,0,1,386.6931,329.162Z" fill="#fff"/><polygon points="233.002 134.856 233.086 137.192 234.855 137.879 234.862 134.86 233.002 134.856" fill="#f9ed32"/><polygon points="234.862 110.974 234.946 113.311 236.714 113.997 236.722 110.979 234.862 110.974" fill="#f9ed32"/><polygon points="255.31 148.201 255.367 150.537 256.6 151.222 256.607 148.204 255.31 148.201" fill="#f9ed32"/><polygon points="266.163 140.607 266.22 142.943 267.453 143.629 267.46 140.61 266.163 140.607" fill="#f9ed32"/><polygon points="254.661 124.516 254.719 126.853 255.951 127.538 255.959 124.519 254.661 124.516" fill="#f9ed32"/><polygon points="264.97 108.062 265.027 110.398 266.259 111.084 266.267 108.065 264.97 108.062" fill="#f9ed32"/><polygon points="220.755 108.061 220.839 110.398 222.607 111.084 222.615 108.066 220.755 108.061" fill="#f9ed32"/><path d="M405.7491,291.6264h6.9848A18.9657,18.9657,0,0,1,431.7,310.5921v6.9848a0,0,0,0,1,0,0h-6.9848a18.9657,18.9657,0,0,1-18.9657-18.9657v-6.9848A0,0,0,0,1,405.7491,291.6264Z" transform="translate(338.0274 -206.8671) rotate(45)" fill="url(#linear-gradient-15)"/><path d="M64.7491,291.6264h6.9848A18.9657,18.9657,0,0,1,90.7,310.5921v6.9848a0,0,0,0,1,0,0H83.7148a18.9657,18.9657,0,0,1-18.9657-18.9657v-6.9848a0,0,0,0,1,0,0Z" transform="translate(238.1508 34.2563) rotate(45)" fill="url(#linear-gradient-16)"/><path d="M418.7244,288.6482v34.3032h0a3.2268,3.2268,0,0,1-1.5277,2.7805c-4.3535,2.6046-9.5788,2.9123-14.7,3.947-48.4745,9.7951-95.1586,9.9314-143.3754,20.9251-4.9822,1.136-10.0579,2.44-14.2724,5.3294-4.9611,3.4015-8.5778,9.4738-6.5732,15.5314a8.9369,8.9369,0,0,0,7.5072,6.2228c6.9585.6381,10.46-7.6093,8.2455-13.4756-1.4492-3.8391-4.1867-7.0741-12.041-10.9143-14.2594-6.972-38.3574-9.452-50.6555-10.7258-12.3415-1.2784-85.8907-10.4887-110.7751-16.7334-.0563-.0141-.1229-.0346-.1977-.06a3.9816,3.9816,0,0,1-2.6351-3.7861v-33.344" fill="none" stroke="#fff" stroke-linecap="round" stroke-linejoin="round" stroke-width="0.75"/><line x1="418.7244" y1="301.1721" x2="424.9997" y2="294.31" fill="none" stroke="#fff" stroke-linecap="round" stroke-linejoin="round" stroke-width="0.75"/><line x1="418.7244" y1="310.9958" x2="427.8237" y2="300.1061" fill="none" stroke="#fff" stroke-linecap="round" stroke-linejoin="round" stroke-width="0.75"/><line x1="418.8812" y1="301.1721" x2="412.6059" y2="294.31" fill="none" stroke="#fff" stroke-linecap="round" stroke-linejoin="round" stroke-width="0.75"/><line x1="418.8812" y1="310.9958" x2="409.7819" y2="300.1061" fill="none" stroke="#fff" stroke-linecap="round" stroke-linejoin="round" stroke-width="0.75"/><line x1="77.7244" y1="301.1721" x2="83.9997" y2="294.31" fill="none" stroke="#fff" stroke-linecap="round" stroke-linejoin="round" stroke-width="0.75"/><line x1="77.7244" y1="310.9958" x2="86.8237" y2="300.1061" fill="none" stroke="#fff" stroke-linecap="round" stroke-linejoin="round" stroke-width="0.75"/><line x1="77.8812" y1="301.1721" x2="71.6059" y2="294.31" fill="none" stroke="#fff" stroke-linecap="round" stroke-linejoin="round" stroke-width="0.75"/><line x1="77.8812" y1="310.9958" x2="68.7819" y2="300.1061" fill="none" stroke="#fff" stroke-linecap="round" stroke-linejoin="round" stroke-width="0.75"/><path d="M138.86,345.1327a5.77,5.77,0,1,0-1.2064,3.5111l104.2006,36.4694.99-2.832L138.8076,345.8691A5.7517,5.7517,0,0,0,138.86,345.1327Zm-5.75,2.75a2.75,2.75,0,1,1,2.75-2.75A2.7528,2.7528,0,0,1,133.11,347.8827Z" fill="url(#New_Gradient_Swatch_29)"/><path d="M358.0994,339.3827a5.7129,5.7129,0,0,0-5.6975,6.4864L248.365,382.2812l.99,2.832,104.2006-36.4694a5.7467,5.7467,0,1,0,4.5435-9.2611Zm0,8.5a2.75,2.75,0,1,1,2.75-2.75A2.7528,2.7528,0,0,1,358.0994,347.8827Z" fill="url(#New_Gradient_Swatch_29-2)"/><polygon points="201.208 376.593 197.783 366.51 234.844 373.94 246.056 384.688 256.995 373.94 294.814 366.024 290.631 376.593 246.237 390.273 201.208 376.593" fill="url(#New_Gradient_Swatch_32-11)"/><polygon points="242.477 384.023 233.727 376.023 200.245 368.523 201.958 373.523 242.477 384.023" fill="#57ffab" opacity="0.46"/><polygon points="249.245 384.023 257.995 376.023 291.477 368.523 289.763 373.523 249.245 384.023" fill="#57ffab" opacity="0.46"/></svg>