<?xml version="1.0" standalone="no"?>
<!DOCTYPE svg PUBLIC "-//W3C//DTD SVG 20010904//EN"
 "http://www.w3.org/TR/2001/REC-SVG-20010904/DTD/svg10.dtd">
<svg version="1.0" xmlns="http://www.w3.org/2000/svg"
 width="982.000000pt" height="982.000000pt" viewBox="0 0 982.000000 982.000000"
 preserveAspectRatio="xMidYMid meet">
<metadata>
Created by potrace 1.11, written by Peter Selinger 2001-2013
</metadata>
<g transform="translate(0.000000,982.000000) scale(0.100000,-0.100000)"
fill="#000000" stroke="none">
<path d="M5683 8087 c-1 -78 -4 -248 -7 -377 -3 -129 -6 -276 -7 -327 l-1 -92
-24 9 c-13 5 -24 7 -24 4 0 -4 -6 -2 -12 4 -7 5 -32 13 -56 17 -48 8 -64 31
-53 75 9 31 3 62 -10 55 -5 -4 -9 2 -10 12 -1 24 1 335 3 348 6 61 -43 158
-112 223 -39 37 -70 57 -70 45 -1 -4 -3 -46 -5 -93 -3 -73 -9 -125 -15 -125
-6 0 -11 -53 -12 -126 l-1 -86 -36 4 c-137 12 -453 18 -506 9 -43 -7 -53 -82
-11 -91 11 -2 125 -7 251 -9 329 -8 299 -2 303 -60 4 -61 -6 -73 -47 -52 -17
9 -31 14 -31 10 0 -4 -7 -1 -15 6 -8 7 -15 10 -15 7 0 -3 -17 1 -37 10 -167
70 -203 77 -298 56 -27 -6 -55 -12 -85 -18 -14 -4 -36 -8 -49 -11 -14 -3 -28
-7 -33 -10 -4 -3 -8 1 -9 8 0 7 -2 58 -3 113 -2 55 -10 129 -18 165 -8 36 -14
91 -13 123 1 32 -1 60 -5 62 -11 7 -85 -61 -123 -113 -46 -62 -52 -91 -52
-261 0 -120 -3 -145 -15 -147 -8 -2 -31 -6 -50 -9 -19 -4 -39 -11 -44 -16 -10
-9 -15 -109 -6 -109 6 0 13 -205 13 -410 0 -117 -4 -170 -17 -215 -10 -33 -18
-64 -19 -70 -2 -5 -5 -14 -9 -20 -3 -5 -9 -25 -13 -42 -3 -18 -12 -36 -18 -40
-7 -5 -176 -8 -377 -8 l-365 -1 -39 36 c-22 19 -58 53 -81 75 -24 22 -82 76
-131 120 -48 44 -99 90 -112 103 -26 23 -43 27 -56 15 -4 -5 -11 -8 -14 -8 -4
-1 -16 -4 -27 -8 -19 -7 -20 -16 -21 -360 -1 -369 0 -359 -45 -437 -8 -14 -16
-27 -19 -30 -3 -3 -14 -21 -24 -40 -56 -103 -151 -265 -158 -268 -4 -2 -8 -8
-8 -14 0 -6 -17 -38 -37 -72 -21 -33 -38 -63 -38 -66 0 -3 -13 -24 -28 -47
-15 -24 -27 -44 -27 -47 0 -2 -25 -45 -55 -95 -30 -51 -55 -94 -55 -96 0 -3
-17 -33 -38 -67 -21 -35 -41 -70 -45 -78 -4 -8 -16 -28 -26 -45 -18 -30 -219
-378 -269 -465 -14 -25 -42 -74 -64 -109 -21 -34 -38 -65 -38 -67 0 -2 -23
-42 -50 -89 -28 -46 -49 -87 -48 -89 2 -2 -4 -12 -13 -22 -9 -11 -24 -33 -33
-51 -9 -17 -25 -34 -36 -38 -12 -4 -17 -11 -13 -18 4 -7 -1 -6 -10 2 -10 8
-17 9 -17 3 0 -6 8 -16 17 -21 10 -6 13 -11 7 -11 -6 0 -17 7 -24 16 -12 13
-16 13 -34 -8 -12 -13 -18 -19 -13 -14 12 17 8 29 -7 17 -8 -7 -23 -14 -35
-16 -11 -2 -35 -10 -53 -19 -18 -8 -43 -17 -55 -21 -13 -3 -23 -10 -23 -15 0
-5 -7 -7 -15 -4 -8 4 -15 1 -15 -6 0 -6 -5 -8 -11 -5 -5 4 -20 -1 -31 -12 -12
-10 -18 -13 -15 -6 5 8 1 8 -18 0 -14 -7 -25 -15 -25 -19 0 -4 -7 -5 -15 -2
-8 4 -15 1 -15 -7 0 -7 -3 -9 -7 -6 -3 4 -12 2 -20 -4 -7 -6 -13 -9 -13 -5 0
4 -13 0 -30 -9 -16 -8 -32 -16 -35 -16 -2 0 -20 -6 -38 -14 -18 -7 -45 -17
-60 -20 -15 -4 -27 -11 -27 -17 0 -5 -4 -7 -9 -3 -5 3 -12 1 -16 -5 -4 -6 -16
-5 -35 5 -36 19 -45 19 -64 -1 -21 -20 -20 -49 1 -73 12 -15 17 -40 17 -95 1
-42 -1 -76 -4 -76 -5 0 -3 -109 3 -210 1 -25 -1 -51 -6 -57 -5 -8 -6 -13 -1
-13 9 0 10 -181 2 -196 -3 -5 -2 -18 2 -29 4 -11 4 -32 -1 -47 -4 -16 -4 -28
-1 -28 4 0 6 -26 5 -58 -4 -66 -4 -60 0 -132 1 -30 -2 -58 -8 -62 -6 -5 -5 -8
3 -8 7 0 11 -4 8 -9 -8 -12 28 -25 299 -105 50 -15 101 -31 115 -36 14 -5 66
-21 115 -35 50 -15 102 -32 117 -37 15 -6 28 -10 30 -9 2 1 50 -14 106 -33 57
-20 107 -34 110 -33 4 1 21 -3 37 -10 30 -11 118 -39 325 -103 58 -17 112 -34
120 -37 8 -3 21 -7 29 -9 8 -1 59 -17 114 -34 54 -18 104 -33 111 -35 6 -1 18
-4 26 -7 8 -3 62 -20 120 -38 193 -59 235 -72 275 -87 22 -8 40 -14 40 -13 0
1 34 -8 75 -21 41 -12 80 -23 85 -25 16 -3 205 -63 255 -80 25 -9 52 -17 61
-19 9 -2 63 -18 120 -36 57 -18 107 -34 112 -35 4 -1 8 -2 10 -3 1 -2 13 -4
26 -7 13 -2 38 -10 55 -18 17 -7 47 -18 66 -24 19 -5 89 -27 155 -47 66 -20
127 -39 135 -42 8 -3 24 -8 35 -10 11 -2 62 -17 113 -34 51 -17 98 -32 105
-33 7 -2 19 -5 27 -8 21 -8 222 -69 240 -73 8 -2 15 -4 15 -5 0 -1 8 -3 18 -5
9 -2 17 0 17 4 0 4 6 8 13 8 10 1 166 48 492 150 137 42 180 55 190 58 6 1 17
5 25 8 43 16 218 70 237 72 12 2 28 7 35 11 7 5 18 9 23 10 12 2 213 63 235
71 18 8 15 7 70 22 25 7 50 16 55 19 6 4 17 7 25 7 8 1 76 20 150 44 203 64
273 86 405 126 66 20 147 45 180 56 33 10 63 19 67 19 4 1 27 8 50 16 24 9 54
18 67 20 14 3 29 8 35 12 6 3 17 7 24 8 8 2 21 6 30 10 9 4 27 9 40 11 13 2
45 12 70 22 26 10 50 19 55 20 4 0 8 1 10 2 1 0 9 2 17 4 8 1 69 20 135 41 66
21 122 38 125 39 22 6 98 29 165 51 44 14 89 27 100 30 11 2 31 8 45 13 14 5
72 24 130 41 58 18 123 38 145 45 38 12 125 38 135 39 3 1 11 5 19 10 7 5 21
10 30 10 22 3 104 27 116 34 9 6 13 8 33 11 4 0 7 241 7 534 l0 532 -24 28
c-19 21 -31 26 -50 22 -17 -3 -56 7 -111 30 -47 19 -91 35 -97 35 -7 0 -13 4
-13 10 0 5 -3 9 -7 9 -5 -1 -11 0 -15 1 -5 1 -11 3 -15 4 -5 1 -18 7 -29 14
-12 6 -24 8 -28 5 -3 -3 -6 0 -6 7 0 7 -3 10 -7 7 -3 -4 -16 -1 -27 6 -12 8
-31 13 -43 12 -15 -1 -20 3 -15 14 3 9 2 13 -3 9 -4 -4 -17 -1 -29 7 -27 19
-47 19 -22 0 11 -8 16 -15 12 -15 -5 0 -21 11 -38 25 -31 27 -53 32 -63 15 -8
-13 -25 -3 -25 13 0 8 3 8 9 -2 6 -9 11 -10 15 -2 4 6 1 13 -6 15 -7 2 -21 7
-31 10 -12 4 -16 2 -12 -7 4 -6 0 -4 -8 6 -9 10 -22 20 -30 21 -8 1 -22 8 -31
15 -9 7 -16 10 -16 7 0 -12 -35 28 -63 71 -15 24 -27 46 -27 50 0 5 -10 24
-23 43 -13 19 -37 60 -53 90 -16 30 -32 57 -35 60 -3 3 -22 34 -41 70 -20 36
-81 143 -137 239 -56 95 -101 176 -101 178 0 3 -8 17 -19 31 -19 28 -67 111
-85 149 -6 13 -14 23 -18 23 -5 0 -8 5 -8 10 0 10 -150 274 -167 295 -5 6 -17
28 -28 50 -19 40 -21 49 -30 160 -2 33 -7 85 -9 115 -3 30 -8 86 -11 125 -3
38 -8 86 -10 105 -3 19 -7 67 -10 105 -3 39 -7 90 -10 115 -3 25 -7 74 -10
110 -5 64 -9 119 -20 233 -3 31 -7 83 -10 115 -2 31 -7 85 -10 120 -4 34 -3
62 2 62 7 0 44 -27 108 -78 6 -4 30 -23 55 -42 24 -19 53 -43 65 -53 11 -10
33 -28 48 -40 16 -12 43 -36 61 -53 43 -41 70 -47 92 -22 26 28 25 45 -4 75
-33 34 -108 100 -152 133 -18 14 -38 30 -44 36 -18 17 -229 170 -251 181 -26
13 -56 8 -71 -11 -16 -22 -6 -64 17 -71 11 -4 19 -16 20 -28 0 -12 2 -38 4
-57 1 -19 6 -75 10 -125 4 -49 8 -106 10 -125 1 -19 6 -64 9 -100 10 -108 24
-265 31 -355 3 -33 7 -85 10 -115 3 -30 7 -80 9 -110 8 -108 17 -205 22 -227
6 -28 -12 -31 -21 -3 -3 11 -13 27 -22 35 -8 9 -17 33 -20 54 -3 23 -10 38
-17 35 -10 -3 -88 117 -85 132 0 4 -3 10 -8 13 -15 11 -43 69 -43 90 0 12 -5
20 -11 19 -10 -3 -74 95 -98 148 -5 12 -24 45 -43 75 -37 60 -50 83 -91 159
-30 55 -28 33 -42 374 -4 87 -10 145 -18 154 -9 11 -12 93 -13 298 -1 155 -5
287 -8 293 -4 6 -3 11 1 11 5 0 6 26 3 57 l-5 58 -115 56 c-63 31 -164 80
-225 109 -152 71 -149 69 -178 93 -14 12 -40 33 -58 47 -18 14 -37 30 -43 35
-6 6 -45 38 -86 70 -41 33 -85 70 -98 83 -43 42 -47 32 -49 -121z m-322 -424
c-8 -15 -10 -15 -11 -2 0 17 10 32 18 25 2 -3 -1 -13 -7 -23z m-798 -116 c-3
-5 -9 -3 -14 4 -4 7 -5 17 -2 22 3 5 9 3 14 -4 4 -7 5 -17 2 -22z m3416 -3405
c-1 -15 -2 -15 -6 1 -2 9 -9 14 -15 11 -7 -4 -8 -2 -4 5 10 15 26 4 25 -17z
m44 -32 c-3 -3 -8 1 -10 8 -3 6 -9 10 -14 6 -10 -6 -12 9 -2 19 3 4 12 -1 19
-11 7 -9 10 -19 7 -22z m-6178 -9 c3 -5 0 -13 -6 -17 -8 -5 -9 -3 -4 6 6 10 4
12 -9 7 -10 -4 -15 -3 -11 3 8 13 22 13 30 1z m6301 -36 c1 -8 -3 -13 -9 -12
-7 1 -10 -5 -9 -13 2 -8 0 -11 -4 -7 -13 12 -13 37 -1 34 7 -1 11 5 9 13 -2 8
0 11 4 7 4 -4 9 -14 10 -22z m-6336 -4 c0 -6 -4 -12 -8 -15 -5 -3 -9 1 -9 9 0
8 4 15 9 15 4 0 8 -4 8 -9z m-100 -41 c0 -5 -2 -10 -4 -10 -3 0 -8 5 -11 10
-3 6 -1 10 4 10 6 0 11 -4 11 -10z m6555 0 c3 -5 1 -10 -4 -10 -6 0 -11 5 -11
10 0 6 2 10 4 10 3 0 8 -4 11 -10z m-6655 -22 c0 -11 -12 -10 -30 2 -12 7 -10
9 8 7 12 0 22 -5 22 -9z m65 2 c3 -6 -1 -7 -9 -4 -18 7 -21 14 -7 14 6 0 13
-4 16 -10z"/>
<path d="M3704 7472 c-17 -17 -18 -54 -2 -70 22 -22 64 -14 77 14 22 50 -37
94 -75 56z"/>
<path d="M2875 7088 c-71 -45 -135 -87 -142 -93 -6 -5 -35 -26 -63 -45 -112
-77 -160 -121 -160 -150 0 -18 8 -31 24 -39 20 -11 29 -11 55 5 17 10 31 22
31 26 0 4 6 8 14 8 8 0 16 4 18 9 2 5 44 37 93 73 94 66 105 74 227 147 103
63 126 92 97 127 -23 28 -64 14 -194 -68z"/>
<path d="M6669 6703 c0 -5 -2 -16 -4 -25 -2 -10 1 -18 6 -18 5 0 9 11 9 25 0
22 -9 37 -11 18z"/>
<path d="M6776 6452 c-2 -4 -1 -14 5 -22 5 -8 9 -13 10 -10 0 3 2 13 4 23 3
17 -10 24 -19 9z"/>
<path d="M6937 6334 c-6 -10 9 -42 16 -34 3 3 1 14 -3 24 -3 11 -9 15 -13 10z"/>
<path d="M7915 6104 c-20 -18 -25 -30 -19 -47 8 -28 7 -27 38 -33 54 -9 78 59
32 89 -23 15 -26 15 -51 -9z"/>
<path d="M1828 6109 c-21 -12 -24 -62 -5 -77 20 -17 58 -10 73 13 17 27 8 62
-19 69 -28 7 -29 7 -49 -5z"/>
<path d="M7000 5929 c0 -11 5 -17 10 -14 6 3 10 13 10 21 0 8 -4 14 -10 14 -5
0 -10 -9 -10 -21z"/>
<path d="M1435 5765 c-63 -18 -120 -38 -132 -48 -69 -55 -114 -105 -136 -151
-34 -69 -36 -111 -4 -120 34 -9 35 -8 52 32 47 106 77 141 155 180 89 43 201
34 302 -24 9 -6 38 25 38 41 0 40 -106 87 -204 90 -34 2 -65 1 -71 0z"/>
<path d="M8332 5560 c-130 -37 -212 -113 -257 -239 -15 -43 -2 -71 32 -71 19
0 52 28 45 37 -1 2 6 22 17 46 44 97 129 150 256 161 28 3 82 -12 133 -35 32
-15 47 -17 62 -9 54 29 -16 95 -122 115 -65 12 -108 11 -166 -5z"/>
<path d="M1440 5437 c-8 -7 -23 -28 -32 -47 -17 -33 -117 -293 -122 -315 -1
-5 -14 -48 -29 -95 -38 -119 -39 -128 -17 -150 36 -36 70 -18 89 45 46 148 95
292 103 303 6 6 8 12 5 12 -4 0 7 29 23 64 15 35 26 67 23 70 -4 3 -1 6 5 6 9
0 19 27 28 78 3 17 -24 42 -44 42 -9 0 -24 -6 -32 -13z"/>
<path d="M1795 5434 c-24 -25 -19 -61 10 -66 34 -7 61 23 46 50 -15 27 -38 34
-56 16z"/>
<path d="M8722 5238 c-22 -22 -14 -57 14 -64 28 -7 44 3 48 32 5 35 -37 57
-62 32z"/>
<path d="M8394 5222 c-24 -16 -22 -46 10 -139 37 -108 66 -200 71 -223 2 -8
13 -51 25 -94 12 -44 23 -89 25 -100 4 -36 17 -76 24 -77 74 -13 91 8 72 93
-13 60 -20 92 -27 127 -3 14 -8 29 -12 35 -3 6 -8 20 -9 31 -10 69 -101 327
-121 343 -18 13 -42 15 -58 4z"/>
</g>
</svg>
